<svg width="21" height="20" viewBox="0 0 23 21" version="1.1" xmlns="http://www.w3.org/2000/svg" xmlns:xlink="http://www.w3.org/1999/xlink" xml:space="preserve" style="fill-rule:evenodd;clip-rule:evenodd;stroke-linejoin:round;stroke-miterlimit:2;" fill="#000000" stroke="rgba(0,0,0,0.0)" stroke-linecap="round" stroke-width="0"><g transform="matrix(1,0,0,1,0.729544,0.193894)"><path d="M12.223,13.764C12.053,13.193 9.33,10.56 9.33,10.56L9.36,10.53C11.054,8.647 12.365,6.419 13.115,4C13.115,4 15.547,4.051 16,4C16.49,3.945 16.687,2.05 15.941,2C15.509,1.971 9,2 9,2C9,2 9.025,0.655 9,0.251C8.971,-0.22 7.044,-0.205 7,0.265C6.953,0.765 7,2 7,2C7,2 1.153,1.869 0,2C-0.662,2.075 -0.667,4.006 0,4C0.712,3.994 11.123,4 11.123,4C10.453,5.92 9.44,7.75 8,9.35C7.07,8.32 5.746,6.23 5.163,5.532C4.663,4.935 3.422,5.514 3.581,6.045C3.832,6.883 5.42,9.17 6.67,10.56C6.67,10.56 2.168,14.723 1.58,15.58C1.201,16.132 2.486,17.429 3,17C3.688,16.426 8,12 8,12C8,12 10.497,14.651 11.064,14.981C11.567,15.274 12.398,14.355 12.223,13.764Z" style="fill:currentColor;"></path></g><g transform="matrix(1,0,0,1,0.621464,0.527344)"><path d="M17.5,8C17.182,7.414 15.818,7.414 15.5,8C14.417,10 11.521,18.644 11.203,19.568C10.945,20.318 12.661,20.574 13,20C13.311,19.474 14.12,17 14.12,17L18.87,17C18.87,17 19.707,19.403 20,20C20.263,20.536 21.986,20.357 21.74,19.645C21.517,19.002 18.583,10 17.5,8ZM14.88,15C14.88,15 15.96,10.67 16.5,10.67C17.04,10.67 18.12,15 18.12,15L14.88,15Z" style="fill:currentColor;"></path></g></svg>
